G04 Layer_Color=65535*
%FSAX24Y24*%
%MOIN*%
G70*
G01*
G75*
%ADD20C,0.0100*%
%ADD29C,0.0079*%
%ADD30C,0.0098*%
%ADD31C,0.0047*%
%ADD32C,0.0047*%
%ADD33C,0.0039*%
%ADD34C,0.0060*%
D20*
X024734Y023341D02*
G03*
X024734Y023341I-000112J000000D01*
G01*
Y031215D02*
G03*
X024734Y031215I-000112J000000D01*
G01*
X017411Y048032D02*
G03*
X017411Y048032I-000088J000000D01*
G01*
Y014567D02*
G03*
X017411Y014567I-000088J000000D01*
G01*
X011654Y047677D02*
X011693D01*
X011654Y045197D02*
Y047677D01*
Y045197D02*
X018268D01*
Y047677D01*
X015354D02*
X018268D01*
X011693D02*
X014094D01*
X014567D01*
Y047835D01*
X015354Y047677D02*
Y047835D01*
X011654Y014213D02*
X011693D01*
X011654Y011732D02*
Y014213D01*
Y011732D02*
X018268D01*
Y014213D01*
X015354D02*
X018268D01*
X011693D02*
X014094D01*
X014567D01*
Y014370D01*
X015354Y014213D02*
Y014370D01*
D29*
X018624Y016929D02*
G03*
X018624Y016929I-000039J000000D01*
G01*
X013701Y018819D02*
X013858D01*
X013701Y018189D02*
X013858D01*
X013701Y040866D02*
X013858D01*
X013701Y040236D02*
X013858D01*
D30*
X021339Y021685D02*
G03*
X021339Y021685I-000049J000000D01*
G01*
Y041370D02*
G03*
X021339Y041370I-000049J000000D01*
G01*
D31*
X013289Y023291D02*
G03*
X014270Y023291I000491J000331D01*
G01*
Y023953D02*
G03*
X013289Y023953I-000491J-000331D01*
G01*
Y027228D02*
G03*
X014270Y027228I000491J000331D01*
G01*
Y027890D02*
G03*
X013289Y027890I-000491J-000331D01*
G01*
Y031165D02*
G03*
X014270Y031165I000491J000331D01*
G01*
Y031827D02*
G03*
X013289Y031827I-000491J-000331D01*
G01*
Y035102D02*
G03*
X014270Y035102I000491J000331D01*
G01*
Y035764D02*
G03*
X013289Y035764I-000491J-000331D01*
G01*
X015257Y023330D02*
G03*
X016239Y023330I000491J000331D01*
G01*
Y023992D02*
G03*
X015257Y023992I-000491J-000331D01*
G01*
X017226Y027228D02*
G03*
X018207Y027228I000491J000331D01*
G01*
Y027890D02*
G03*
X017226Y027890I-000491J-000331D01*
G01*
Y035102D02*
G03*
X018207Y035102I000491J000331D01*
G01*
Y035764D02*
G03*
X017226Y035764I-000491J-000331D01*
G01*
X011320Y023291D02*
G03*
X012302Y023291I000491J000331D01*
G01*
Y023953D02*
G03*
X011320Y023953I-000491J-000331D01*
G01*
Y027228D02*
G03*
X012302Y027228I000491J000331D01*
G01*
Y027890D02*
G03*
X011320Y027890I-000491J-000331D01*
G01*
Y031165D02*
G03*
X012302Y031165I000491J000331D01*
G01*
Y031827D02*
G03*
X011320Y031827I-000491J-000331D01*
G01*
Y035102D02*
G03*
X012302Y035102I000491J000331D01*
G01*
Y035764D02*
G03*
X011320Y035764I-000491J-000331D01*
G01*
X017226Y023291D02*
G03*
X018207Y023291I000491J000331D01*
G01*
Y023953D02*
G03*
X017226Y023953I-000491J-000331D01*
G01*
X015257Y027228D02*
G03*
X016239Y027228I000491J000331D01*
G01*
Y027890D02*
G03*
X015257Y027890I-000491J-000331D01*
G01*
Y035102D02*
G03*
X016239Y035102I000491J000331D01*
G01*
Y035764D02*
G03*
X015257Y035764I-000491J-000331D01*
G01*
Y031165D02*
G03*
X016239Y031165I000491J000331D01*
G01*
Y031827D02*
G03*
X015257Y031827I-000491J-000331D01*
G01*
X017226Y031165D02*
G03*
X018207Y031165I000491J000331D01*
G01*
Y031827D02*
G03*
X017226Y031827I-000491J-000331D01*
G01*
X067429Y021154D02*
Y024154D01*
X066429D02*
X067429D01*
X066429Y021154D02*
Y024154D01*
Y021154D02*
X067429D01*
Y025091D02*
Y028091D01*
X066429D02*
X067429D01*
X066429Y025091D02*
Y028091D01*
Y025091D02*
X067429D01*
Y029028D02*
Y032028D01*
X066429D02*
X067429D01*
X066429Y029028D02*
Y032028D01*
Y029028D02*
X067429D01*
Y032965D02*
Y035965D01*
X066429D02*
X067429D01*
X066429Y032965D02*
Y035965D01*
Y032965D02*
X067429D01*
Y017217D02*
Y020217D01*
X066429D02*
X067429D01*
X066429Y017217D02*
Y020217D01*
Y017217D02*
X067429D01*
Y036902D02*
Y039902D01*
X066429D02*
X067429D01*
X066429Y036902D02*
Y039902D01*
Y036902D02*
X067429D01*
D32*
X017925Y016803D02*
X018435D01*
X017925Y016720D02*
Y016803D01*
X016720Y016720D02*
X017925D01*
X016720D02*
Y016803D01*
X017925Y017843D02*
Y017925D01*
X016720D02*
X017925D01*
X016720Y017843D02*
Y017925D01*
X022835Y027559D02*
X024409D01*
X022835Y023622D02*
X024409D01*
X022835Y035433D02*
X024409D01*
X022835Y031496D02*
X024409D01*
X022146Y017409D02*
Y017484D01*
Y017409D02*
X025098D01*
Y017484D01*
X022146Y021886D02*
Y021961D01*
X025098D01*
Y021886D02*
Y021961D01*
X021459Y021886D02*
X022146D01*
X021541Y031102D02*
Y031890D01*
X020821Y031102D02*
Y031890D01*
X021136Y034685D02*
Y035472D01*
X021856Y034685D02*
Y035472D01*
X022146Y037094D02*
Y037169D01*
Y037094D02*
X025098D01*
Y037169D01*
X022146Y041571D02*
Y041646D01*
X025098D01*
Y041571D02*
Y041646D01*
X021459Y041571D02*
X022146D01*
X015715Y016929D02*
Y017717D01*
X014994Y016929D02*
Y017717D01*
X067913Y022278D02*
X068701D01*
X067913Y022998D02*
X068701D01*
X067913Y026215D02*
X068701D01*
X067913Y026935D02*
X068701D01*
X067913Y018341D02*
X068701D01*
X067913Y019061D02*
X068701D01*
X067913Y030152D02*
X068701D01*
X067913Y030872D02*
X068701D01*
X067913Y038026D02*
X068701D01*
X067913Y038746D02*
X068701D01*
X067913Y034089D02*
X068701D01*
X067913Y034809D02*
X068701D01*
X021541Y023307D02*
Y024094D01*
X020821Y023307D02*
Y024094D01*
X011417Y022081D02*
X012205D01*
X011417Y022801D02*
X012205D01*
X017323Y022081D02*
X018110D01*
X017323Y022801D02*
X018110D01*
X011417Y029955D02*
X012205D01*
X011417Y030675D02*
X012205D01*
X015354Y029955D02*
X016142D01*
X015354Y030675D02*
X016142D01*
X013386Y022081D02*
X014173D01*
X013386Y022801D02*
X014173D01*
X015354Y022120D02*
X016142D01*
X015354Y022841D02*
X016142D01*
X013386Y029955D02*
X014173D01*
X013386Y030675D02*
X014173D01*
X017323Y029955D02*
X018110D01*
X017323Y030675D02*
X018110D01*
X011417Y026018D02*
X012205D01*
X011417Y026738D02*
X012205D01*
X015354Y026018D02*
X016142D01*
X015354Y026738D02*
X016142D01*
X011417Y033892D02*
X012205D01*
X011417Y034612D02*
X012205D01*
X015354Y033892D02*
X016142D01*
X015354Y034612D02*
X016142D01*
X013386Y026018D02*
X014173D01*
X013386Y026738D02*
X014173D01*
X017323Y026018D02*
X018110D01*
X017323Y026738D02*
X018110D01*
X013386Y033892D02*
X014173D01*
X013386Y034612D02*
X014173D01*
X017323Y033892D02*
X018110D01*
X017323Y034612D02*
X018110D01*
X013150Y019256D02*
X014409D01*
X013150Y020114D02*
X014409D01*
X013150Y038941D02*
X014409D01*
X013150Y039799D02*
X014409D01*
D33*
X021693Y023150D02*
Y023543D01*
X022008Y023150D02*
Y023543D01*
X018976Y017087D02*
X019370D01*
X018976Y017402D02*
X019370D01*
X021693Y031063D02*
Y031457D01*
X022008Y031063D02*
Y031457D01*
X021024Y019724D02*
Y020118D01*
X020709Y019724D02*
Y020118D01*
X021024Y039409D02*
Y039803D01*
X020709Y039409D02*
Y039803D01*
D34*
X017008Y016560D02*
Y016310D01*
X017058Y016260D01*
X017158D01*
X017208Y016310D01*
Y016560D01*
X017508D02*
X017308D01*
Y016410D01*
X017408Y016460D01*
X017458D01*
X017508Y016410D01*
Y016310D01*
X017458Y016260D01*
X017358D01*
X017308Y016310D01*
X022365Y023439D02*
X022315Y023489D01*
X022215D01*
X022165Y023439D01*
Y023239D01*
X022215Y023189D01*
X022315D01*
X022365Y023239D01*
X022665Y023489D02*
X022465D01*
Y023339D01*
X022565Y023389D01*
X022615D01*
X022665Y023339D01*
Y023239D01*
X022615Y023189D01*
X022515D01*
X022465Y023239D01*
X023425Y023450D02*
Y023200D01*
X023475Y023150D01*
X023575D01*
X023625Y023200D01*
Y023450D01*
X023875Y023150D02*
Y023450D01*
X023725Y023300D01*
X023925D01*
X023386Y031324D02*
Y031074D01*
X023436Y031024D01*
X023536D01*
X023586Y031074D01*
Y031324D01*
X023686Y031274D02*
X023736Y031324D01*
X023836D01*
X023886Y031274D01*
Y031224D01*
X023836Y031174D01*
X023786D01*
X023836D01*
X023886Y031124D01*
Y031074D01*
X023836Y031024D01*
X023736D01*
X023686Y031074D01*
X023346Y017150D02*
Y016900D01*
X023396Y016850D01*
X023496D01*
X023546Y016900D01*
Y017150D01*
X023846Y016850D02*
X023646D01*
X023846Y017050D01*
Y017100D01*
X023796Y017150D01*
X023696D01*
X023646Y017100D01*
X020630Y031142D02*
X020330D01*
Y031292D01*
X020380Y031342D01*
X020480D01*
X020530Y031292D01*
Y031142D01*
Y031242D02*
X020630Y031342D01*
Y031442D02*
Y031542D01*
Y031492D01*
X020330D01*
X020380Y031442D01*
X020580Y031692D02*
X020630Y031742D01*
Y031842D01*
X020580Y031891D01*
X020380D01*
X020330Y031842D01*
Y031742D01*
X020380Y031692D01*
X020430D01*
X020480Y031742D01*
Y031891D01*
X020945Y034685D02*
X020645D01*
Y034835D01*
X020695Y034885D01*
X020795D01*
X020845Y034835D01*
Y034685D01*
Y034785D02*
X020945Y034885D01*
Y035185D02*
Y034985D01*
X020745Y035185D01*
X020695D01*
X020645Y035135D01*
Y035035D01*
X020695Y034985D01*
Y035285D02*
X020645Y035335D01*
Y035435D01*
X020695Y035485D01*
X020895D01*
X020945Y035435D01*
Y035335D01*
X020895Y035285D01*
X020695D01*
X021251Y042294D02*
Y042044D01*
X021301Y041994D01*
X021401D01*
X021451Y042044D01*
Y042294D01*
X021551Y041994D02*
X021651D01*
X021601D01*
Y042294D01*
X021551Y042244D01*
X035633Y028990D02*
X035583Y029040D01*
X035483D01*
X035433Y028990D01*
Y028940D01*
X035483Y028890D01*
X035583D01*
X035633Y028840D01*
Y028790D01*
X035583Y028740D01*
X035483D01*
X035433Y028790D01*
X035733Y028690D02*
X035933D01*
X036233Y028990D02*
X036183Y029040D01*
X036083D01*
X036033Y028990D01*
Y028790D01*
X036083Y028740D01*
X036183D01*
X036233Y028790D01*
X036483Y028740D02*
Y029040D01*
X036333Y028890D01*
X036533D01*
X036633Y029040D02*
Y028740D01*
X036783D01*
X036833Y028790D01*
Y028840D01*
X036783Y028890D01*
X036633D01*
X036783D01*
X036833Y028940D01*
Y028990D01*
X036783Y029040D01*
X036633D01*
X059338Y047090D02*
X059288Y047140D01*
X059188D01*
X059138Y047090D01*
Y047040D01*
X059188Y046990D01*
X059288D01*
X059338Y046940D01*
Y046890D01*
X059288Y046840D01*
X059188D01*
X059138Y046890D01*
X059438Y046790D02*
X059638D01*
X059938Y047090D02*
X059888Y047140D01*
X059788D01*
X059738Y047090D01*
Y046890D01*
X059788Y046840D01*
X059888D01*
X059938Y046890D01*
X060188Y046840D02*
Y047140D01*
X060038Y046990D01*
X060238D01*
X060338Y046840D02*
Y047040D01*
X060438Y047140D01*
X060538Y047040D01*
Y046840D01*
Y046990D01*
X060338D01*
X043587Y028984D02*
X043537Y029034D01*
X043437D01*
X043387Y028984D01*
Y028934D01*
X043437Y028884D01*
X043537D01*
X043587Y028834D01*
Y028784D01*
X043537Y028734D01*
X043437D01*
X043387Y028784D01*
X043687Y028684D02*
X043887D01*
X044187Y028984D02*
X044137Y029034D01*
X044037D01*
X043987Y028984D01*
Y028784D01*
X044037Y028734D01*
X044137D01*
X044187Y028784D01*
X044287Y028984D02*
X044337Y029034D01*
X044437D01*
X044487Y028984D01*
Y028934D01*
X044437Y028884D01*
X044387D01*
X044437D01*
X044487Y028834D01*
Y028784D01*
X044437Y028734D01*
X044337D01*
X044287Y028784D01*
X044587Y029034D02*
Y028734D01*
X044737D01*
X044787Y028784D01*
Y028834D01*
X044737Y028884D01*
X044587D01*
X044737D01*
X044787Y028934D01*
Y028984D01*
X044737Y029034D01*
X044587D01*
X051458Y047090D02*
X051408Y047140D01*
X051308D01*
X051259Y047090D01*
Y047040D01*
X051308Y046990D01*
X051408D01*
X051458Y046940D01*
Y046890D01*
X051408Y046840D01*
X051308D01*
X051259Y046890D01*
X051558Y046790D02*
X051758D01*
X052058Y047090D02*
X052008Y047140D01*
X051908D01*
X051858Y047090D01*
Y046890D01*
X051908Y046840D01*
X052008D01*
X052058Y046890D01*
X052158Y047090D02*
X052208Y047140D01*
X052308D01*
X052358Y047090D01*
Y047040D01*
X052308Y046990D01*
X052258D01*
X052308D01*
X052358Y046940D01*
Y046890D01*
X052308Y046840D01*
X052208D01*
X052158Y046890D01*
X052458Y046840D02*
Y047040D01*
X052558Y047140D01*
X052658Y047040D01*
Y046840D01*
Y046990D01*
X052458D01*
X051458Y028984D02*
X051408Y029034D01*
X051308D01*
X051259Y028984D01*
Y028934D01*
X051308Y028884D01*
X051408D01*
X051458Y028834D01*
Y028784D01*
X051408Y028734D01*
X051308D01*
X051259Y028784D01*
X051558Y028684D02*
X051758D01*
X052058Y028984D02*
X052008Y029034D01*
X051908D01*
X051858Y028984D01*
Y028784D01*
X051908Y028734D01*
X052008D01*
X052058Y028784D01*
X052358Y028734D02*
X052158D01*
X052358Y028934D01*
Y028984D01*
X052308Y029034D01*
X052208D01*
X052158Y028984D01*
X052458Y029034D02*
Y028734D01*
X052608D01*
X052658Y028784D01*
Y028834D01*
X052608Y028884D01*
X052458D01*
X052608D01*
X052658Y028934D01*
Y028984D01*
X052608Y029034D01*
X052458D01*
X043590Y047093D02*
X043540Y047143D01*
X043440D01*
X043390Y047093D01*
Y047043D01*
X043440Y046993D01*
X043540D01*
X043590Y046943D01*
Y046893D01*
X043540Y046843D01*
X043440D01*
X043390Y046893D01*
X043690Y046793D02*
X043890D01*
X044190Y047093D02*
X044140Y047143D01*
X044040D01*
X043990Y047093D01*
Y046893D01*
X044040Y046843D01*
X044140D01*
X044190Y046893D01*
X044490Y046843D02*
X044290D01*
X044490Y047043D01*
Y047093D01*
X044440Y047143D01*
X044340D01*
X044290Y047093D01*
X044590Y046843D02*
Y047043D01*
X044690Y047143D01*
X044790Y047043D01*
Y046843D01*
Y046993D01*
X044590D01*
X059331Y028984D02*
X059281Y029034D01*
X059181D01*
X059131Y028984D01*
Y028934D01*
X059181Y028884D01*
X059281D01*
X059331Y028834D01*
Y028784D01*
X059281Y028734D01*
X059181D01*
X059131Y028784D01*
X059431Y028684D02*
X059631D01*
X059931Y028984D02*
X059881Y029034D01*
X059781D01*
X059731Y028984D01*
Y028784D01*
X059781Y028734D01*
X059881D01*
X059931Y028784D01*
X060031Y028734D02*
X060131D01*
X060081D01*
Y029034D01*
X060031Y028984D01*
X060281Y029034D02*
Y028734D01*
X060431D01*
X060481Y028784D01*
Y028834D01*
X060431Y028884D01*
X060281D01*
X060431D01*
X060481Y028934D01*
Y028984D01*
X060431Y029034D01*
X060281D01*
X035714Y047090D02*
X035664Y047140D01*
X035564D01*
X035514Y047090D01*
Y047040D01*
X035564Y046990D01*
X035664D01*
X035714Y046940D01*
Y046890D01*
X035664Y046840D01*
X035564D01*
X035514Y046890D01*
X035814Y046790D02*
X036014D01*
X036313Y047090D02*
X036263Y047140D01*
X036163D01*
X036114Y047090D01*
Y046890D01*
X036163Y046840D01*
X036263D01*
X036313Y046890D01*
X036413Y046840D02*
X036513D01*
X036463D01*
Y047140D01*
X036413Y047090D01*
X036663Y046840D02*
Y047040D01*
X036763Y047140D01*
X036863Y047040D01*
Y046840D01*
Y046990D01*
X036663D01*
X014949Y018561D02*
Y018861D01*
X015099D01*
X015148Y018811D01*
Y018711D01*
X015099Y018661D01*
X014949D01*
X015049D02*
X015148Y018561D01*
X015248Y018811D02*
X015298Y018861D01*
X015398D01*
X015448Y018811D01*
Y018761D01*
X015398Y018711D01*
X015348D01*
X015398D01*
X015448Y018661D01*
Y018611D01*
X015398Y018561D01*
X015298D01*
X015248Y018611D01*
X015548Y018811D02*
X015598Y018861D01*
X015698D01*
X015748Y018811D01*
Y018611D01*
X015698Y018561D01*
X015598D01*
X015548Y018611D01*
Y018811D01*
X067683Y023301D02*
Y023601D01*
X067832D01*
X067882Y023551D01*
Y023451D01*
X067832Y023401D01*
X067683D01*
X067782D02*
X067882Y023301D01*
X068182D02*
X067982D01*
X068182Y023501D01*
Y023551D01*
X068132Y023601D01*
X068032D01*
X067982Y023551D01*
X068282Y023351D02*
X068332Y023301D01*
X068432D01*
X068482Y023351D01*
Y023551D01*
X068432Y023601D01*
X068332D01*
X068282Y023551D01*
Y023501D01*
X068332Y023451D01*
X068482D01*
X067680Y027230D02*
Y027530D01*
X067830D01*
X067880Y027480D01*
Y027380D01*
X067830Y027330D01*
X067680D01*
X067780D02*
X067880Y027230D01*
X068180D02*
X067980D01*
X068180Y027430D01*
Y027480D01*
X068130Y027530D01*
X068030D01*
X067980Y027480D01*
X068280D02*
X068330Y027530D01*
X068430D01*
X068480Y027480D01*
Y027430D01*
X068430Y027380D01*
X068480Y027330D01*
Y027280D01*
X068430Y027230D01*
X068330D01*
X068280Y027280D01*
Y027330D01*
X068330Y027380D01*
X068280Y027430D01*
Y027480D01*
X068330Y027380D02*
X068430D01*
X012870Y019230D02*
Y019530D01*
X013020D01*
X013070Y019480D01*
Y019380D01*
X013020Y019330D01*
X012870D01*
X012970D02*
X013070Y019230D01*
X013370D02*
X013170D01*
X013370Y019430D01*
Y019480D01*
X013320Y019530D01*
X013220D01*
X013170Y019480D01*
X013470Y019530D02*
X013670D01*
Y019480D01*
X013470Y019280D01*
Y019230D01*
X012870Y041271D02*
Y041571D01*
X013020D01*
X013070Y041521D01*
Y041421D01*
X013020Y041371D01*
X012870D01*
X012970D02*
X013070Y041271D01*
X013370D02*
X013170D01*
X013370Y041471D01*
Y041521D01*
X013320Y041571D01*
X013220D01*
X013170Y041521D01*
X013670Y041571D02*
X013570Y041521D01*
X013470Y041421D01*
Y041321D01*
X013520Y041271D01*
X013620D01*
X013670Y041321D01*
Y041371D01*
X013620Y041421D01*
X013470D01*
X067680Y019362D02*
Y019662D01*
X067830D01*
X067880Y019612D01*
Y019512D01*
X067830Y019462D01*
X067680D01*
X067780D02*
X067880Y019362D01*
X068180D02*
X067980D01*
X068180Y019562D01*
Y019612D01*
X068130Y019662D01*
X068030D01*
X067980Y019612D01*
X068480Y019662D02*
X068280D01*
Y019512D01*
X068380Y019562D01*
X068430D01*
X068480Y019512D01*
Y019412D01*
X068430Y019362D01*
X068330D01*
X068280Y019412D01*
X067683Y031170D02*
Y031470D01*
X067833D01*
X067883Y031420D01*
Y031320D01*
X067833Y031270D01*
X067683D01*
X067783D02*
X067883Y031170D01*
X068183D02*
X067983D01*
X068183Y031370D01*
Y031420D01*
X068133Y031470D01*
X068033D01*
X067983Y031420D01*
X068433Y031170D02*
Y031470D01*
X068283Y031320D01*
X068483D01*
X067686Y039050D02*
Y039350D01*
X067836D01*
X067886Y039300D01*
Y039200D01*
X067836Y039150D01*
X067686D01*
X067786D02*
X067886Y039050D01*
X068186D02*
X067986D01*
X068186Y039250D01*
Y039300D01*
X068136Y039350D01*
X068036D01*
X067986Y039300D01*
X068286D02*
X068336Y039350D01*
X068436D01*
X068486Y039300D01*
Y039250D01*
X068436Y039200D01*
X068386D01*
X068436D01*
X068486Y039150D01*
Y039100D01*
X068436Y039050D01*
X068336D01*
X068286Y039100D01*
X067683Y035110D02*
Y035410D01*
X067833D01*
X067883Y035360D01*
Y035260D01*
X067833Y035210D01*
X067683D01*
X067783D02*
X067883Y035110D01*
X068183D02*
X067983D01*
X068183Y035310D01*
Y035360D01*
X068133Y035410D01*
X068033D01*
X067983Y035360D01*
X068483Y035110D02*
X068283D01*
X068483Y035310D01*
Y035360D01*
X068433Y035410D01*
X068333D01*
X068283Y035360D01*
X020842Y024645D02*
Y024945D01*
X020992D01*
X021042Y024895D01*
Y024795D01*
X020992Y024745D01*
X020842D01*
X020942D02*
X021042Y024645D01*
X021342D02*
X021142D01*
X021342Y024845D01*
Y024895D01*
X021292Y024945D01*
X021192D01*
X021142Y024895D01*
X021442Y024645D02*
X021542D01*
X021492D01*
Y024945D01*
X021442Y024895D01*
X015400Y044310D02*
Y044610D01*
X015550D01*
X015600Y044560D01*
Y044460D01*
X015550Y044410D01*
X015400D01*
X015500D02*
X015600Y044310D01*
X015700D02*
X015800D01*
X015750D01*
Y044610D01*
X015700Y044560D01*
X015950D02*
X016000Y044610D01*
X016100D01*
X016150Y044560D01*
Y044510D01*
X016100Y044460D01*
X016150Y044410D01*
Y044360D01*
X016100Y044310D01*
X016000D01*
X015950Y044360D01*
Y044410D01*
X016000Y044460D01*
X015950Y044510D01*
Y044560D01*
X016000Y044460D02*
X016100D01*
X014618Y044310D02*
Y044610D01*
X014768D01*
X014818Y044560D01*
Y044460D01*
X014768Y044410D01*
X014618D01*
X014718D02*
X014818Y044310D01*
X014918D02*
X015018D01*
X014968D01*
Y044610D01*
X014918Y044560D01*
X015168Y044610D02*
X015368D01*
Y044560D01*
X015168Y044360D01*
Y044310D01*
X011190Y023105D02*
Y023405D01*
X011340D01*
X011390Y023355D01*
Y023255D01*
X011340Y023205D01*
X011190D01*
X011290D02*
X011390Y023105D01*
X011490D02*
X011590D01*
X011540D01*
Y023405D01*
X011490Y023355D01*
X011940Y023405D02*
X011840Y023355D01*
X011740Y023255D01*
Y023155D01*
X011790Y023105D01*
X011890D01*
X011940Y023155D01*
Y023205D01*
X011890Y023255D01*
X011740D01*
X017098Y023105D02*
Y023405D01*
X017248D01*
X017298Y023355D01*
Y023255D01*
X017248Y023205D01*
X017098D01*
X017198D02*
X017298Y023105D01*
X017398D02*
X017498D01*
X017448D01*
Y023405D01*
X017398Y023355D01*
X017848Y023405D02*
X017648D01*
Y023255D01*
X017748Y023305D01*
X017798D01*
X017848Y023255D01*
Y023155D01*
X017798Y023105D01*
X017698D01*
X017648Y023155D01*
X011191Y030979D02*
Y031279D01*
X011341D01*
X011391Y031229D01*
Y031129D01*
X011341Y031079D01*
X011191D01*
X011291D02*
X011391Y030979D01*
X011491D02*
X011591D01*
X011541D01*
Y031279D01*
X011491Y031229D01*
X011891Y030979D02*
Y031279D01*
X011741Y031129D01*
X011941D01*
X015120Y030979D02*
Y031279D01*
X015270D01*
X015320Y031229D01*
Y031129D01*
X015270Y031079D01*
X015120D01*
X015220D02*
X015320Y030979D01*
X015420D02*
X015520D01*
X015470D01*
Y031279D01*
X015420Y031229D01*
X015670D02*
X015720Y031279D01*
X015820D01*
X015870Y031229D01*
Y031179D01*
X015820Y031129D01*
X015770D01*
X015820D01*
X015870Y031079D01*
Y031029D01*
X015820Y030979D01*
X015720D01*
X015670Y031029D01*
X013160Y023104D02*
Y023404D01*
X013310D01*
X013360Y023354D01*
Y023254D01*
X013310Y023204D01*
X013160D01*
X013260D02*
X013360Y023104D01*
X013460D02*
X013560D01*
X013510D01*
Y023404D01*
X013460Y023354D01*
X013910Y023104D02*
X013710D01*
X013910Y023304D01*
Y023354D01*
X013860Y023404D01*
X013760D01*
X013710Y023354D01*
X015122Y023138D02*
Y023438D01*
X015272D01*
X015322Y023388D01*
Y023288D01*
X015272Y023238D01*
X015122D01*
X015222D02*
X015322Y023138D01*
X015422D02*
X015522D01*
X015472D01*
Y023438D01*
X015422Y023388D01*
X015672Y023138D02*
X015772D01*
X015722D01*
Y023438D01*
X015672Y023388D01*
X013156Y030977D02*
Y031277D01*
X013306D01*
X013356Y031227D01*
Y031127D01*
X013306Y031077D01*
X013156D01*
X013256D02*
X013356Y030977D01*
X013456D02*
X013556D01*
X013506D01*
Y031277D01*
X013456Y031227D01*
X013706D02*
X013756Y031277D01*
X013856D01*
X013906Y031227D01*
Y031027D01*
X013856Y030977D01*
X013756D01*
X013706Y031027D01*
Y031227D01*
X017095Y030979D02*
Y031279D01*
X017245D01*
X017295Y031229D01*
Y031129D01*
X017245Y031079D01*
X017095D01*
X017195D02*
X017295Y030979D01*
X017395Y031029D02*
X017445Y030979D01*
X017545D01*
X017595Y031029D01*
Y031229D01*
X017545Y031279D01*
X017445D01*
X017395Y031229D01*
Y031179D01*
X017445Y031129D01*
X017595D01*
X011190Y027040D02*
Y027340D01*
X011340D01*
X011390Y027290D01*
Y027190D01*
X011340Y027140D01*
X011190D01*
X011290D02*
X011390Y027040D01*
X011490Y027290D02*
X011540Y027340D01*
X011640D01*
X011690Y027290D01*
Y027240D01*
X011640Y027190D01*
X011690Y027140D01*
Y027090D01*
X011640Y027040D01*
X011540D01*
X011490Y027090D01*
Y027140D01*
X011540Y027190D01*
X011490Y027240D01*
Y027290D01*
X011540Y027190D02*
X011640D01*
X015120Y027040D02*
Y027340D01*
X015270D01*
X015320Y027290D01*
Y027190D01*
X015270Y027140D01*
X015120D01*
X015220D02*
X015320Y027040D01*
X015420Y027340D02*
X015620D01*
Y027290D01*
X015420Y027090D01*
Y027040D01*
X011190Y034907D02*
Y035207D01*
X011340D01*
X011390Y035157D01*
Y035057D01*
X011340Y035007D01*
X011190D01*
X011290D02*
X011390Y034907D01*
X011690Y035207D02*
X011590Y035157D01*
X011490Y035057D01*
Y034957D01*
X011540Y034907D01*
X011640D01*
X011690Y034957D01*
Y035007D01*
X011640Y035057D01*
X011490D01*
X015120Y034914D02*
Y035214D01*
X015270D01*
X015320Y035164D01*
Y035064D01*
X015270Y035014D01*
X015120D01*
X015220D02*
X015320Y034914D01*
X015620Y035214D02*
X015420D01*
Y035064D01*
X015520Y035114D01*
X015570D01*
X015620Y035064D01*
Y034964D01*
X015570Y034914D01*
X015470D01*
X015420Y034964D01*
X013154Y027035D02*
Y027335D01*
X013304D01*
X013354Y027285D01*
Y027185D01*
X013304Y027135D01*
X013154D01*
X013254D02*
X013354Y027035D01*
X013604D02*
Y027335D01*
X013454Y027185D01*
X013654D01*
X017094Y027034D02*
Y027334D01*
X017244D01*
X017294Y027284D01*
Y027184D01*
X017244Y027134D01*
X017094D01*
X017194D02*
X017294Y027034D01*
X017394Y027284D02*
X017444Y027334D01*
X017544D01*
X017594Y027284D01*
Y027234D01*
X017544Y027184D01*
X017494D01*
X017544D01*
X017594Y027134D01*
Y027084D01*
X017544Y027034D01*
X017444D01*
X017394Y027084D01*
X013154Y034910D02*
Y035210D01*
X013304D01*
X013354Y035160D01*
Y035060D01*
X013304Y035010D01*
X013154D01*
X013254D02*
X013354Y034910D01*
X013654D02*
X013454D01*
X013654Y035110D01*
Y035160D01*
X013604Y035210D01*
X013504D01*
X013454Y035160D01*
X017096Y034912D02*
Y035212D01*
X017246D01*
X017296Y035162D01*
Y035062D01*
X017246Y035012D01*
X017096D01*
X017196D02*
X017296Y034912D01*
X017395D02*
X017495D01*
X017445D01*
Y035212D01*
X017395Y035162D01*
X066577Y024869D02*
X066477D01*
X066527D01*
Y024619D01*
X066477Y024569D01*
X066427D01*
X066377Y024619D01*
X066677Y024519D02*
X066877D01*
X067177Y024819D02*
X067127Y024869D01*
X067027D01*
X066977Y024819D01*
Y024619D01*
X067027Y024569D01*
X067127D01*
X067177Y024619D01*
X067427Y024569D02*
Y024869D01*
X067277Y024719D01*
X067477D01*
X066577Y028815D02*
X066477D01*
X066527D01*
Y028565D01*
X066477Y028515D01*
X066427D01*
X066377Y028565D01*
X066677Y028465D02*
X066877D01*
X067177Y028765D02*
X067127Y028815D01*
X067027D01*
X066977Y028765D01*
Y028565D01*
X067027Y028515D01*
X067127D01*
X067177Y028565D01*
X067277Y028765D02*
X067327Y028815D01*
X067427D01*
X067477Y028765D01*
Y028715D01*
X067427Y028665D01*
X067377D01*
X067427D01*
X067477Y028615D01*
Y028565D01*
X067427Y028515D01*
X067327D01*
X067277Y028565D01*
X066580Y032751D02*
X066480D01*
X066530D01*
Y032501D01*
X066480Y032452D01*
X066430D01*
X066380Y032501D01*
X066680Y032402D02*
X066880D01*
X067180Y032701D02*
X067130Y032751D01*
X067030D01*
X066980Y032701D01*
Y032501D01*
X067030Y032452D01*
X067130D01*
X067180Y032501D01*
X067480Y032452D02*
X067280D01*
X067480Y032651D01*
Y032701D01*
X067430Y032751D01*
X067330D01*
X067280Y032701D01*
X066584Y036685D02*
X066484D01*
X066534D01*
Y036435D01*
X066484Y036385D01*
X066434D01*
X066384Y036435D01*
X066684Y036335D02*
X066884D01*
X067183Y036635D02*
X067133Y036685D01*
X067033D01*
X066984Y036635D01*
Y036435D01*
X067033Y036385D01*
X067133D01*
X067183Y036435D01*
X067283Y036385D02*
X067383D01*
X067333D01*
Y036685D01*
X067283Y036635D01*
X066577Y020935D02*
X066477D01*
X066527D01*
Y020685D01*
X066477Y020635D01*
X066427D01*
X066377Y020685D01*
X066677Y020585D02*
X066877D01*
X066977Y020935D02*
Y020635D01*
X067127D01*
X067177Y020685D01*
Y020735D01*
X067127Y020785D01*
X066977D01*
X067127D01*
X067177Y020835D01*
Y020885D01*
X067127Y020935D01*
X066977D01*
X066580Y040621D02*
X066480D01*
X066530D01*
Y040371D01*
X066480Y040321D01*
X066430D01*
X066380Y040371D01*
X066680Y040272D02*
X066880D01*
X066980Y040321D02*
Y040521D01*
X067080Y040621D01*
X067180Y040521D01*
Y040321D01*
Y040471D01*
X066980D01*
X011861Y048733D02*
X011761D01*
X011811D01*
Y048483D01*
X011761Y048433D01*
X011711D01*
X011661Y048483D01*
X011961Y048683D02*
X012011Y048733D01*
X012111D01*
X012161Y048683D01*
Y048633D01*
X012111Y048583D01*
X012161Y048533D01*
Y048483D01*
X012111Y048433D01*
X012011D01*
X011961Y048483D01*
Y048533D01*
X012011Y048583D01*
X011961Y048633D01*
Y048683D01*
X012011Y048583D02*
X012111D01*
X011860Y015260D02*
X011760D01*
X011810D01*
Y015010D01*
X011760Y014960D01*
X011710D01*
X011660Y015010D01*
X011960Y015260D02*
X012160D01*
Y015210D01*
X011960Y015010D01*
Y014960D01*
X012975Y025096D02*
Y024796D01*
X013125D01*
X013175Y024846D01*
Y025046D01*
X013125Y025096D01*
X012975D01*
X013275Y024746D02*
X013475D01*
X013575Y024796D02*
Y025096D01*
X013725D01*
X013775Y025046D01*
Y024946D01*
X013725Y024896D01*
X013575D01*
X013875Y025096D02*
Y024796D01*
X014025D01*
X014075Y024846D01*
Y024896D01*
X014025Y024946D01*
X013875D01*
X014025D01*
X014075Y024996D01*
Y025046D01*
X014025Y025096D01*
X013875D01*
X014375Y025046D02*
X014325Y025096D01*
X014225D01*
X014175Y025046D01*
Y024846D01*
X014225Y024796D01*
X014325D01*
X014375Y024846D01*
X014625Y024796D02*
Y025096D01*
X014475Y024946D01*
X014675D01*
X012970Y029032D02*
Y028732D01*
X013120D01*
X013170Y028782D01*
Y028982D01*
X013120Y029032D01*
X012970D01*
X013270Y028682D02*
X013470D01*
X013570Y028732D02*
Y029032D01*
X013720D01*
X013770Y028982D01*
Y028882D01*
X013720Y028832D01*
X013570D01*
X013870Y029032D02*
Y028732D01*
X014019D01*
X014069Y028782D01*
Y028832D01*
X014019Y028882D01*
X013870D01*
X014019D01*
X014069Y028932D01*
Y028982D01*
X014019Y029032D01*
X013870D01*
X014369Y028982D02*
X014319Y029032D01*
X014219D01*
X014169Y028982D01*
Y028782D01*
X014219Y028732D01*
X014319D01*
X014369Y028782D01*
X014469Y028982D02*
X014519Y029032D01*
X014619D01*
X014669Y028982D01*
Y028932D01*
X014619Y028882D01*
X014569D01*
X014619D01*
X014669Y028832D01*
Y028782D01*
X014619Y028732D01*
X014519D01*
X014469Y028782D01*
X012975Y032974D02*
Y032674D01*
X013125D01*
X013175Y032724D01*
Y032924D01*
X013125Y032974D01*
X012975D01*
X013275Y032624D02*
X013475D01*
X013575Y032674D02*
Y032974D01*
X013725D01*
X013775Y032924D01*
Y032824D01*
X013725Y032774D01*
X013575D01*
X013875Y032974D02*
Y032674D01*
X014025D01*
X014075Y032724D01*
Y032774D01*
X014025Y032824D01*
X013875D01*
X014025D01*
X014075Y032874D01*
Y032924D01*
X014025Y032974D01*
X013875D01*
X014375Y032924D02*
X014325Y032974D01*
X014225D01*
X014175Y032924D01*
Y032724D01*
X014225Y032674D01*
X014325D01*
X014375Y032724D01*
X014675Y032674D02*
X014475D01*
X014675Y032874D01*
Y032924D01*
X014625Y032974D01*
X014525D01*
X014475Y032924D01*
X012970Y036907D02*
Y036607D01*
X013120D01*
X013170Y036657D01*
Y036857D01*
X013120Y036907D01*
X012970D01*
X013270Y036557D02*
X013470D01*
X013570Y036607D02*
Y036907D01*
X013720D01*
X013770Y036857D01*
Y036757D01*
X013720Y036707D01*
X013570D01*
X013870Y036907D02*
Y036607D01*
X014020D01*
X014070Y036657D01*
Y036707D01*
X014020Y036757D01*
X013870D01*
X014020D01*
X014070Y036807D01*
Y036857D01*
X014020Y036907D01*
X013870D01*
X014370Y036857D02*
X014320Y036907D01*
X014220D01*
X014170Y036857D01*
Y036657D01*
X014220Y036607D01*
X014320D01*
X014370Y036657D01*
X014470Y036607D02*
X014569D01*
X014519D01*
Y036907D01*
X014470Y036857D01*
X014944Y025133D02*
Y024833D01*
X015094D01*
X015144Y024883D01*
Y025083D01*
X015094Y025133D01*
X014944D01*
X015244Y024783D02*
X015444D01*
X015544Y024833D02*
Y025133D01*
X015693D01*
X015743Y025083D01*
Y024983D01*
X015693Y024933D01*
X015544D01*
X015843Y024833D02*
Y025033D01*
X015943Y025133D01*
X016043Y025033D01*
Y024833D01*
Y024983D01*
X015843D01*
X016343Y025083D02*
X016293Y025133D01*
X016193D01*
X016143Y025083D01*
Y024883D01*
X016193Y024833D01*
X016293D01*
X016343Y024883D01*
X016593Y024833D02*
Y025133D01*
X016443Y024983D01*
X016643D01*
X016907Y029039D02*
Y028739D01*
X017057D01*
X017107Y028789D01*
Y028989D01*
X017057Y029039D01*
X016907D01*
X017207Y028689D02*
X017407D01*
X017507Y028739D02*
Y029039D01*
X017657D01*
X017707Y028989D01*
Y028889D01*
X017657Y028839D01*
X017507D01*
X017807Y028739D02*
Y028939D01*
X017906Y029039D01*
X018006Y028939D01*
Y028739D01*
Y028889D01*
X017807D01*
X018306Y028989D02*
X018256Y029039D01*
X018156D01*
X018106Y028989D01*
Y028789D01*
X018156Y028739D01*
X018256D01*
X018306Y028789D01*
X018406Y028989D02*
X018456Y029039D01*
X018556D01*
X018606Y028989D01*
Y028939D01*
X018556Y028889D01*
X018506D01*
X018556D01*
X018606Y028839D01*
Y028789D01*
X018556Y028739D01*
X018456D01*
X018406Y028789D01*
X016910Y036907D02*
Y036607D01*
X017060D01*
X017110Y036657D01*
Y036857D01*
X017060Y036907D01*
X016910D01*
X017210Y036557D02*
X017410D01*
X017510Y036607D02*
Y036907D01*
X017660D01*
X017710Y036857D01*
Y036757D01*
X017660Y036707D01*
X017510D01*
X017810Y036607D02*
Y036807D01*
X017910Y036907D01*
X018010Y036807D01*
Y036607D01*
Y036757D01*
X017810D01*
X018310Y036857D02*
X018260Y036907D01*
X018160D01*
X018110Y036857D01*
Y036657D01*
X018160Y036607D01*
X018260D01*
X018310Y036657D01*
X018410Y036607D02*
X018509D01*
X018460D01*
Y036907D01*
X018410Y036857D01*
X011006Y025103D02*
Y024803D01*
X011156D01*
X011206Y024853D01*
Y025053D01*
X011156Y025103D01*
X011006D01*
X011306Y024753D02*
X011506D01*
X011806Y025053D02*
X011756Y025103D01*
X011656D01*
X011606Y025053D01*
Y024853D01*
X011656Y024803D01*
X011756D01*
X011806Y024853D01*
X011906Y025103D02*
Y024803D01*
X012056D01*
X012106Y024853D01*
Y024903D01*
X012056Y024953D01*
X011906D01*
X012056D01*
X012106Y025003D01*
Y025053D01*
X012056Y025103D01*
X011906D01*
X012406Y025053D02*
X012356Y025103D01*
X012256D01*
X012206Y025053D01*
Y024853D01*
X012256Y024803D01*
X012356D01*
X012406Y024853D01*
X012656Y024803D02*
Y025103D01*
X012506Y024953D01*
X012706D01*
X011001Y029031D02*
Y028731D01*
X011151D01*
X011201Y028781D01*
Y028981D01*
X011151Y029031D01*
X011001D01*
X011301Y028681D02*
X011501D01*
X011801Y028981D02*
X011751Y029031D01*
X011651D01*
X011601Y028981D01*
Y028781D01*
X011651Y028731D01*
X011751D01*
X011801Y028781D01*
X011901Y029031D02*
Y028731D01*
X012051D01*
X012101Y028781D01*
Y028831D01*
X012051Y028881D01*
X011901D01*
X012051D01*
X012101Y028931D01*
Y028981D01*
X012051Y029031D01*
X011901D01*
X012401Y028981D02*
X012351Y029031D01*
X012251D01*
X012201Y028981D01*
Y028781D01*
X012251Y028731D01*
X012351D01*
X012401Y028781D01*
X012501Y028981D02*
X012551Y029031D01*
X012651D01*
X012701Y028981D01*
Y028931D01*
X012651Y028881D01*
X012601D01*
X012651D01*
X012701Y028831D01*
Y028781D01*
X012651Y028731D01*
X012551D01*
X012501Y028781D01*
X011006Y032974D02*
Y032674D01*
X011156D01*
X011206Y032724D01*
Y032924D01*
X011156Y032974D01*
X011006D01*
X011306Y032624D02*
X011506D01*
X011806Y032924D02*
X011756Y032974D01*
X011656D01*
X011606Y032924D01*
Y032724D01*
X011656Y032674D01*
X011756D01*
X011806Y032724D01*
X011906Y032974D02*
Y032674D01*
X012056D01*
X012106Y032724D01*
Y032774D01*
X012056Y032824D01*
X011906D01*
X012056D01*
X012106Y032874D01*
Y032924D01*
X012056Y032974D01*
X011906D01*
X012406Y032924D02*
X012356Y032974D01*
X012256D01*
X012206Y032924D01*
Y032724D01*
X012256Y032674D01*
X012356D01*
X012406Y032724D01*
X012706Y032674D02*
X012506D01*
X012706Y032874D01*
Y032924D01*
X012656Y032974D01*
X012556D01*
X012506Y032924D01*
X011010Y036907D02*
Y036607D01*
X011160D01*
X011210Y036657D01*
Y036857D01*
X011160Y036907D01*
X011010D01*
X011310Y036557D02*
X011510D01*
X011810Y036857D02*
X011760Y036907D01*
X011660D01*
X011610Y036857D01*
Y036657D01*
X011660Y036607D01*
X011760D01*
X011810Y036657D01*
X011910Y036907D02*
Y036607D01*
X012060D01*
X012110Y036657D01*
Y036707D01*
X012060Y036757D01*
X011910D01*
X012060D01*
X012110Y036807D01*
Y036857D01*
X012060Y036907D01*
X011910D01*
X012410Y036857D02*
X012360Y036907D01*
X012260D01*
X012210Y036857D01*
Y036657D01*
X012260Y036607D01*
X012360D01*
X012410Y036657D01*
X012510Y036607D02*
X012609D01*
X012559D01*
Y036907D01*
X012510Y036857D01*
X016910Y025097D02*
Y024797D01*
X017060D01*
X017110Y024847D01*
Y025047D01*
X017060Y025097D01*
X016910D01*
X017210Y024747D02*
X017410D01*
X017710Y025047D02*
X017660Y025097D01*
X017560D01*
X017510Y025047D01*
Y024847D01*
X017560Y024797D01*
X017660D01*
X017710Y024847D01*
X017810Y024797D02*
Y024997D01*
X017910Y025097D01*
X018010Y024997D01*
Y024797D01*
Y024947D01*
X017810D01*
X018310Y025047D02*
X018260Y025097D01*
X018160D01*
X018110Y025047D01*
Y024847D01*
X018160Y024797D01*
X018260D01*
X018310Y024847D01*
X018559Y024797D02*
Y025097D01*
X018410Y024947D01*
X018609D01*
X014938Y029031D02*
Y028731D01*
X015088D01*
X015138Y028781D01*
Y028981D01*
X015088Y029031D01*
X014938D01*
X015238Y028681D02*
X015438D01*
X015738Y028981D02*
X015688Y029031D01*
X015588D01*
X015538Y028981D01*
Y028781D01*
X015588Y028731D01*
X015688D01*
X015738Y028781D01*
X015838Y028731D02*
Y028931D01*
X015938Y029031D01*
X016038Y028931D01*
Y028731D01*
Y028881D01*
X015838D01*
X016338Y028981D02*
X016288Y029031D01*
X016188D01*
X016138Y028981D01*
Y028781D01*
X016188Y028731D01*
X016288D01*
X016338Y028781D01*
X016438Y028981D02*
X016488Y029031D01*
X016588D01*
X016638Y028981D01*
Y028931D01*
X016588Y028881D01*
X016538D01*
X016588D01*
X016638Y028831D01*
Y028781D01*
X016588Y028731D01*
X016488D01*
X016438Y028781D01*
X014940Y036907D02*
Y036607D01*
X015090D01*
X015140Y036657D01*
Y036857D01*
X015090Y036907D01*
X014940D01*
X015240Y036557D02*
X015440D01*
X015740Y036857D02*
X015690Y036907D01*
X015590D01*
X015540Y036857D01*
Y036657D01*
X015590Y036607D01*
X015690D01*
X015740Y036657D01*
X015840Y036607D02*
Y036807D01*
X015940Y036907D01*
X016040Y036807D01*
Y036607D01*
Y036757D01*
X015840D01*
X016340Y036857D02*
X016290Y036907D01*
X016190D01*
X016140Y036857D01*
Y036657D01*
X016190Y036607D01*
X016290D01*
X016340Y036657D01*
X016440Y036607D02*
X016539D01*
X016489D01*
Y036907D01*
X016440Y036857D01*
X014943Y032973D02*
Y032673D01*
X015093D01*
X015143Y032723D01*
Y032923D01*
X015093Y032973D01*
X014943D01*
X015243Y032623D02*
X015443D01*
X015743Y032923D02*
X015693Y032973D01*
X015593D01*
X015543Y032923D01*
Y032723D01*
X015593Y032673D01*
X015693D01*
X015743Y032723D01*
X015843Y032673D02*
Y032873D01*
X015943Y032973D01*
X016043Y032873D01*
Y032673D01*
Y032823D01*
X015843D01*
X016343Y032923D02*
X016293Y032973D01*
X016193D01*
X016143Y032923D01*
Y032723D01*
X016193Y032673D01*
X016293D01*
X016343Y032723D01*
X016643Y032673D02*
X016443D01*
X016643Y032873D01*
Y032923D01*
X016593Y032973D01*
X016493D01*
X016443Y032923D01*
X016912Y032977D02*
Y032677D01*
X017062D01*
X017112Y032727D01*
Y032927D01*
X017062Y032977D01*
X016912D01*
X017212Y032627D02*
X017412D01*
X017512Y032677D02*
Y032977D01*
X017662D01*
X017712Y032927D01*
Y032827D01*
X017662Y032777D01*
X017512D01*
X017812Y032677D02*
Y032877D01*
X017912Y032977D01*
X018012Y032877D01*
Y032677D01*
Y032827D01*
X017812D01*
X018312Y032927D02*
X018262Y032977D01*
X018162D01*
X018112Y032927D01*
Y032727D01*
X018162Y032677D01*
X018262D01*
X018312Y032727D01*
X018612Y032677D02*
X018412D01*
X018612Y032877D01*
Y032927D01*
X018562Y032977D01*
X018462D01*
X018412Y032927D01*
X019119Y017939D02*
X019069Y017989D01*
X018969D01*
X018919Y017939D01*
Y017739D01*
X018969Y017689D01*
X019069D01*
X019119Y017739D01*
X019219Y017939D02*
X019269Y017989D01*
X019369D01*
X019419Y017939D01*
Y017889D01*
X019369Y017839D01*
X019419Y017789D01*
Y017739D01*
X019369Y017689D01*
X019269D01*
X019219Y017739D01*
Y017789D01*
X019269Y017839D01*
X019219Y017889D01*
Y017939D01*
X019269Y017839D02*
X019369D01*
X013120Y020660D02*
X013070Y020710D01*
X012970D01*
X012920Y020660D01*
Y020460D01*
X012970Y020410D01*
X013070D01*
X013120Y020460D01*
X013220Y020710D02*
X013420D01*
Y020660D01*
X013220Y020460D01*
Y020410D01*
X013122Y040350D02*
X013072Y040400D01*
X012972D01*
X012922Y040350D01*
Y040150D01*
X012972Y040100D01*
X013072D01*
X013122Y040150D01*
X013422Y040400D02*
X013322Y040350D01*
X013222Y040250D01*
Y040150D01*
X013272Y040100D01*
X013372D01*
X013422Y040150D01*
Y040200D01*
X013372Y040250D01*
X013222D01*
X021922Y032084D02*
X021872Y032134D01*
X021772D01*
X021722Y032084D01*
Y031884D01*
X021772Y031834D01*
X021872D01*
X021922Y031884D01*
X022172Y031834D02*
Y032134D01*
X022022Y031984D01*
X022222D01*
X020944Y020742D02*
X020894Y020792D01*
X020794D01*
X020744Y020742D01*
Y020543D01*
X020794Y020493D01*
X020894D01*
X020944Y020543D01*
X021044Y020742D02*
X021094Y020792D01*
X021194D01*
X021244Y020742D01*
Y020692D01*
X021194Y020642D01*
X021144D01*
X021194D01*
X021244Y020592D01*
Y020543D01*
X021194Y020493D01*
X021094D01*
X021044Y020543D01*
X020944Y040429D02*
X020894Y040479D01*
X020794D01*
X020744Y040429D01*
Y040229D01*
X020794Y040179D01*
X020894D01*
X020944Y040229D01*
X021244Y040179D02*
X021044D01*
X021244Y040379D01*
Y040429D01*
X021194Y040479D01*
X021094D01*
X021044Y040429D01*
M02*
