M48
;Layer_Color=9474304
;FILE_FORMAT=2:4
INCH
;TYPE=PLATED
T1F00S00C0.0098
T2F00S00C0.0328
T3F00S00C0.0340
T4F00S00C0.0354
T5F00S00C0.0400
%
T01
X010827Y010827
X011811
X012795
X013780
X014764
X015256Y011811
X014272
X013287
X012303
X011319
X011811Y012795
X010827
X011319Y013780
X012303
X012795Y014764
X013780
X014764
X010827
X015748
X016732
X017717
X018701
X019685
X020669
X021654
X022638
X023622
X024606
X025591
X026575
X027067Y013780
X026083
X025098
X024114
X023130
X022146
X021161
X021654Y012795
X022638
X023622
X024606
X025591
X026575
X027067Y011811
X026083
X025098
X024114
X023130
X022146
X021161
X020177
X020669Y012795
X019685
X018701
X019193Y013780
X018209
Y011811
X018701Y010827
X019685
X020669
X021654
X022638
X023622
X024606
X025591
X026575
X017717
X016732
X015748
X016240Y011811
X031988
X032972
X033957
X034941
X035925
X036909
X037894
X038878
X039862
X040354Y010827
X041339
X042323
X043307
X044291
X045276
X046260
X045768Y011811
X044783
X043799
X042815
X041831
X042323Y012795
X043307
X044291
X045276
X046260
X045768Y013780
X044783
X042815
X041831
X040846
X039862
X039370Y012795
X038386
X037402
X036417
X035433
X034449
X033465
X032480
X032972Y013780
X033957
X034941
X036909
X037894
X038386Y010827
X039370
X037402
X036417
X035433
X034449
X033465
X032480
X031988Y013780
X032092Y014887
X032274Y015069
X032456Y015251
X032638Y015433
X041339Y012795
X047244
X048228
X049213
X050197
X051181
X052165
X053150
X054134
X055118
X056102
X057087
X058071
X059055
X060039
X061024
X062008
X061516Y013780
X060532
X061024Y014764
X062008
X060039
X059055
X058071
X057087
X056102
X055118
X054134
X053150
X052165
X051181
X050689Y013780
X049705
X048720
X047736
Y011811
X048720
X049705
X050689
X051673
X052657
X053642
X054134Y010827
X055118
X056102
X057087
X058071
X059055
X060039
X061024
X062008
X061516Y011811
X060532
X059547
X058563
X057579
X056594
X055610
Y013780
X056594
X057579
X058563
X053642
X052657
X053150Y010827
X052165
X051181
X050197
X049213
X048228
X047244
X062992
X063976
X064961
X065945
X066929
X067913
X068898
X069882
X070866
X071850
X072343Y011811
X071358
X070374
X069390
X068406
X067421
X066437
X065453
X064469
X063484
X063976Y012795
X064961
X065453Y013780
X066437
X067421
X068406
X069390
X070374
X071358
X072343
X071850Y014764
X070866
X069882
X068898
X067913
Y012795
X068898
X069882
X070866
X071850
X066929
X065945Y014764
X064961
X063976
X062992
X063484Y013780
X064469
X062992Y012795
X063484Y015748
X064469
X065453
X066437
X067421
X068406
X069390
X070374
X071358
X072343
X071850Y016732
X070866
X069882
X068898
X067913
X068406Y017717
X069390
X070374
X071358
X072343
X071850Y018701
X070866
X069882
X069094Y018701
X069390Y019685
X070374
X071358
X072343
X071850Y020669
X070866
X069882
X068898
X067913
X066929
X065945
X065630Y021654
X064469Y021654
X063484
X062500
X062992Y022638
X063976
X064168Y023903
X063986Y024085
X063804Y024267
X063622Y024449
X062992Y024606
X062500Y025591
X062992Y026575
X062500Y027559
X063872Y027591
X065945Y028543
X066929
X067913
X068898
X069882
X070866
X071850
X072343Y029528
X071358
X070374
X069390
X068406
X067421
Y027559
X068406
X069390
X070374
X071358
X072343
X071850Y026575
X070866
X069882
X069094Y026575
X069390Y025591
X070374
X071358
X072343
X071850Y024606
X070866
X069882
X068898
X067913
X066929
X065945
X065354Y025591
X065945Y026575
X067421Y025591
X068406
Y023622
X069390
X070374
X071358
X072343
X071850Y022638
X070866
X069882
X069094Y022638
X069390Y021654
X070374
X071358
X072343
X068406
X067421
Y023622
X065945Y022638
Y018701
X066437Y017717
X067421
Y019685
X068406
X064469
X063484
X063976Y020669
X062992
Y018701
X063976
X064469Y017717
X064843Y017795
X065025Y017613
X065207Y017431
X065389Y017249
X065945Y016732
X063484Y017717
X062500Y029528
X065100Y029528
X065945Y030512
X069094Y030512
X069882Y030512
X070866
X071850
X061516Y029528
X060532
X059547
X058563
X057579
X056594
X055610
X054626
X053642
X052657
X051673
X050689
X049705
X048720
X047736
Y027559
X048720
X049705
X050689
X051673
X052657
X053642
X054626
X055610
X056594
X057579
X058563
X059547
X060532
X061516
X062008Y026575
X061024
X060039
X060532Y025591
X061516
X062008Y024606
X061024
X060039
X059055
X058071
X057087
X056102
X055118
X054134
X053150
X052165
X051181
X050197
X049213
X048228
X047244
X047736Y025591
X048720
X049705
X050689
X051673
X052657
X053642
X054626
X055610
X056594
X057579
X058563
X059547
X058071Y026575
X057087
X056102
X055118
X054134
X053150
X052165
X050197
X049213
X048228
X047244
X047736Y023622
X048720
X049705
X050689
X051673
X052657
X053642
X054626
X055118Y020669
X056102
X057087
X058071
X059055
X060039
X061024
X061516Y021654
X060532
X059547
X060532Y019685
X061516
X062008Y018701
X061024
X060039
X059055
X058071
X057087
X056102
X055118
X054134
X053150
X052165
X051181
X050197
X049213
X048228
X047244
X047736Y019685
X048720
X049705
X050689
X051181Y020669
X052165
X053150
X053642Y019685
X052657
Y017717
X053642
X055610
X056594
X057579
X058563
X060532
X061516
Y015748
X060532
X058563
X057579
X056594
X055610
X053642
X052657
X050689
X049705
X048720
X047736
Y017717
X048720
X049705
X050689
X050197Y020669
X049213
X048228
X047244
X055610Y019685
X056594
X057579
X058563
X062008Y022638
X046752Y023622
X045768
X044783
X043799
X042815
X041831
X040846
X039862
X038878
X037894
X036909
X035925
X034941
X033957
X032972
X033465Y024606
X034449
X035433
X036417
X037402
X038386
X039370
X040354
X041339
X042323
X043307
X044291
X045276
X046260
X046752Y025591
X045768
X044783
X043799
X042815
X041831
X040846
X039862
X038878
X037894
X036909
X035925
X034941
Y027559
X035925
X036909
X037894
X038878
X039862
X040846
X041831
X042815
X043799
X044783
X045768
X046752
X046260Y026575
X045276
X044291
X042323
X041339
X040354
X039370
X038386
X037402
X036417
Y028543
X037402
X038386
X039370
X039862Y029528
X040846
X041831
X042815
X043799
X044783
X045768
X046752
X038878
X037894
X036909
X035925
X034941
X033957
X032972
X031988
X032480Y030512
X033465
X034449
X035433
X036417
X037402
X038386
X039370
X035433Y028543
X034449
X033465
X032480
X032972Y027559
X033957
X033465Y026575
X032480
X031988Y027559
X032200Y024759
X032018Y024577
X031836Y024395
X031654Y024213
X033465Y022638
X034449Y020669
X035433
X036417
X037402
X039370
X040354
X041339
X042323
X043307
X044291
X045276
X045768Y019685
X044783
X045276Y018701
X046260
X045768Y017717
X044783
X044291Y018701
X043307
X042323
X041339
X040354
X039370
X038386
X037402
X036417
X035433
X034449
X033465
X033957Y017717
X034941
X035433Y016732
X036417
X037402
X038386
X039370
X039862Y017717
X040846
X041831
X042815
Y019685
X041831
X040846
X039862
Y015748
X040846
X041831
X042815
X044783
X045768
X037894
X036909
Y017717
X037894
X034449Y016732
X033465
X033957Y015748
X034941
X032972
Y017717
X027067
X026339Y017677
X026535Y016929
X026083Y015748
X027067
X025098
X024114
X023130
X022146
X021161
X020512Y016693
X019646Y017244
X018701Y017283
X018780Y016929
X019193Y015748
X016240
X015945Y016654
Y016968
X015945Y017283
X015945Y017992
X016732Y018701
X017323Y018504
X017717Y018110
X017323Y019291
X017224Y019685
X016240
X016732Y020669
X017717
X018209Y021654
X017224
X016240
X016535Y022480
X018504Y022441
X018701Y022638
X021181Y022835
X021654Y022638
X021850Y022874
X022638Y022638
X023622
X024606
X025591
X025354Y023976
X025591Y024449
X025984Y024213
X026535Y023780
X026772Y023976
X027165Y023622
X027067Y021654
X024114
X023130
X023622Y020669
X024606
X024114Y019685
X023130
X023622Y018701
X024606
X024114Y017717
X023130
X022638Y018701
X021209Y019185
X021181Y019685
Y020197
X021185Y021185
X021189Y021685
X020077Y021185
X019685Y019197
X019685Y018701
X018898Y018504
Y019291
X019193Y019685
X020284Y018189
X021181
X021189Y017685
X022638Y020669
X023425Y023622
X023819
X022030Y023841
X021850Y024724
X021654Y025494
X021378Y025236
X021102Y025000
X021654Y026575
X022047Y026850
X022008Y027362
X021654Y028543
X022638
X023622
X024606
X025591
X026083Y029528
X027067
Y027559
X026083
X025215Y027341
X025236Y026339
Y026024
X025591Y026575
X025984Y026220
X026378Y025748
X027165Y026378
X023819
X023622Y026575
X023425Y026378
X023130Y029528
X024114
X025098
X025591Y030512
X024606
X023622
X022638
X021654
X021850Y030787
X021181Y030709
X021161Y029528
X022146
X019488Y029724
Y029331
Y028543
X018504
Y029331
Y029724
X018209Y029528
X017224
X016240
X016535Y030315
X018504
X019488Y027362
X019842Y026890
X018504Y026378
X016535
X015748Y023976
X014291Y024213
X014286Y024470
X013780Y024724
X012795Y024606
X012913Y025236
X012520Y025984
X012598Y026378
X012087Y025748
X011811Y025494
X011319Y025591
X011811Y024606
X012795Y022638
X012598Y022441
X012303Y021654
X013287
X014272
X015256
X014567Y022441
X014764Y022638
Y020669
X013780
X012795
X011811
X012303Y019685
X012598Y019685
Y018504
X011811Y018701
X012303Y017717
X013287
X013780Y018701
X014961Y019094
X015256Y019685
X015354Y016457
X015256Y015748
X014764Y016732
X013780
X012795
X013287Y015748
X012303
X011319
X010827Y016732
X011319Y017717
Y019685
Y021654
X014828Y024985
X014567Y026378
X014272Y029528
X015256
X014567Y030315
X012598
X012303Y029528
X013287
X011319
X011811Y032480
X012303Y033465
X013287
X014272
X015256
X014567Y034213
X012598
X011319Y033465
X013780Y032480
Y036417
X014764
X015256Y037402
X014272
X013287
X012303
X011319
X011811Y038386
X012795
X013780
X014764
X015256Y039370
X014961Y039961
X013780Y040354
X012598Y040551
X011811Y040354
X012303Y041339
X013287
X014272
X015256
X014764Y042323
X013780
X012795
X011811
X012303Y043307
X013287
X014272
X014764Y044291
X013780
X012795
X011811
X012303Y045276
X013287
X014272
X015256
X011319
X011220Y045669
X010827Y046260
X011319Y043307
Y041339
Y039370
X012303
X012598Y039370
X012795Y036417
X011811
X015748
X016732
X017717
X018701Y036654
Y037205
X018209Y037402
X017224
X016240
X016732Y038386
X017717
X018701
X018209Y039370
X017224
X016240
X016732Y040354
X017717
X018701
X020591Y040354
X021181Y039882
Y039370
X021205Y038370
X021185Y037870
X021189Y037370
X020276Y037874
X019843Y037874
X019685Y037205
Y036654
Y036024
X018701
X018701Y034449
X018504Y034213
X018819Y033086
X017717Y032598
X017953Y032323
X018228Y032071
X016732Y032835
X016202Y033601
X016417Y033858
X016535Y034213
X016732Y034449
X015748Y033346
X015748Y038386
Y040354
Y042323
X016732
X017717
X018701
X018209Y043307
X017224
X016240
X016732Y044291
X016240Y045276
X018209
X019193
X020177
X021161
X022146
X023130
X024114
X025098
X026083
X027067
X026575Y046260
X025591
X024606
X023622
X022638
X021654
X020669
X019685
X018701
Y044291
X019685
X020669
X021654
X022638
X023622
X024606
X025591
X026575
X027067Y043307
X026083
X025098
X024114
X023130
X022146
X021161
X020177
X020669Y042323
X021654
X022638
X023622
X024606
X025591
X026575
X027067Y041339
X024114
X023130
X023622Y040354
X024606
X024114Y039370
X023130
X023622Y038386
X024606
X024114Y037402
X023130
X023622Y036417
X024606
X025591
X026575
X026142Y037402
X027067Y037402
Y035433
X026083
X025215Y035215
X025591Y034449
X025709Y034094
X025394
X025394Y033071
X025376Y032577
X025709Y032835
X025984Y033346
X026575Y034449
X027165Y034252
Y031496
X026083Y031496
X025098
X023819Y031496
X023425
X022030Y031715
X022047Y032007
X021339Y032323
X021281Y033601
X021575Y034094
X021811Y033858
X022047Y034213
Y034724
X022065Y035215
X021496Y035945
X021654Y036417
X022638
Y038386
Y040354
X021071Y041370
X020177Y041339
X020496Y038370
X019882Y035236
X019488Y034724
X023622Y034449
X023819Y034252
X023425
X031772Y034724
X031954Y034542
X032136Y034360
X032318Y034178
X031988Y033465
X032972
X033957
X034941
X035925
X036909
X037894
X038878
X039862
X040846
X041831
X042815
X043799
X044783
X045768
X046752
X046260Y034449
X045276
X044291
X043307
X042323
X041339
X040354
X039370
X038386
X037402
X036417
X035433
X034449
X033465
X033957Y035433
X034941
X035925
X036909
X037894
X038878
X039862
X040846
X041831
X042815
X043799
X044783
X045768
X046752
X046260Y032480
X045276
X044291
X044783Y031496
X045768
X046752
X043799
X042815
X041831
X040846
X039862
X038878
X037894
X036909
X035925
X034941
X033957
X032972
X031988
X032972Y035433
X033465Y038386
X034449
X035433
X036417
X037402
X036909Y039370
Y041339
X037894
X038386Y042323
X039370
X039862Y043307
X040846
X041831
X042815
X043307Y044291
X044291
X045276
X046260
X045768Y045276
X044783
X045276Y046260
X046260
X044291
X043307
X042323
X041339
X041831Y045276
X042815
X040846
X039862
X039370Y046260
X038386
X037402
X036417
X035433
X034449
X033465
X032480
X032972Y045276
X033957
X034941
X036909
X037894
Y043307
X036909
X037402Y042323
X036417
X035433
X034449
X033465
X033957Y043307
X034941
Y041339
X033957
X032972
Y039370
X033957
X034941
X038386Y040354
X039370
X040354
X041339
X042323
X043307
X044291
X045276
X046260
X045768Y041339
X044783
Y043307
X045768
Y039370
X044783
X045276Y038386
X044291
X043307
X042323
X041339
X040354
X039370
X039862Y039370
X040846
X041831
X042815
Y041339
X041831
X040846
X039862
X032835Y043504
X032653Y043686
X032471Y043868
X032288Y044050
X031988Y045276
X036417Y032480
X037402
X038386
X039370
X040354
X041339
X042323
X047244
X048228
X049213
X050197
X050689Y033465
X051673
X052657
X053642
X054626
X055610
X056594
X057579
X058563
X059547
X060532
X061516
X062008Y034449
X061024
X060039
X059055
X058071
X057087
X056102
X055118
X054134
X053150
X052165
X051181
X050197
X049213
X048228
X047244
X047736Y035433
X048720
X049705
X050689
X051673
X052657
X053642
X054626
X055118Y038386
X056102
X057087
X058071
X059055
X060039
X061024
X061516Y039370
X060532
X061024Y040354
X062008
X061516Y041339
X060532
X060039Y040354
X059055
X058071
X057087
X056102
X055118
X054134
X053150
X052165
X051181
X050197
X049213
X048228
X047244
X047736Y041339
X048720
X049705
X050689
X052657
X053642
X055610
X056594
X057579
X058563
Y043307
X057579
X056594
X055610
X056102Y044291
X057087
X058071
X059055
X060039
X061024
X062008
X061516Y045276
X060532
X061024Y046260
X062008
X060039
X059055
X058071
X057087
X056102
X055118
X054134
X053150
X052165
X051181
X050197
X049213
X048228
X047244
X047736Y045276
X048720
X049705
X050689
X051181Y044291
X052165
X053150
X054134
X055118
X055610Y045276
X056594
X057579
X058563
X060532Y043307
X061516
Y037402
X060532
X059547
X058563Y039370
X057579
X056594
X055610
X053642
X052657
X053150Y038386
X052165
X051181
X050197
X049213
X048228
X047244
X047736Y039370
X048720
X049705
X050689
Y043307
X049705
X048720
X047736
X048228Y044291
X049213
X050197
X047244
X052657Y045276
X053642
Y043307
X052657
X053150Y032480
X054134
X055118
X056102
X057087
X058071
X058563Y031496
X059547
X060532
X061516
X062008Y032480
X061024
X060039
X057579Y031496
X056594
X055610
X054626
X053642
X052657
X051673
X050689
X049705
X048720
X047736
Y033465
X048720
X049705
X052165Y032480
X062008Y036417
X062992
X062500Y037402
X062992Y038386
X064961
X065945
X066437Y039370
X067421
X068406
X069390
X070374
X071358
X072343
X071850Y040354
X070866
X069882
X068898
X067913
X068406Y041339
X069390
X070374
X071358
X072343
X071850Y042323
X070866
X069882
X068898
X067913
X068406Y043307
X069390
X070374
X071358
X072343
X071850Y044291
X070866
X069882
X068898
X067913
X068406Y045276
X069390
X070374
X071358
X072343
X071850Y046260
X070866
X069882
X068898
X067913
X066929
X065945
X064961
X063976
X062992
X063484Y045276
X064469
X065453
X066437
X067421
Y043307
X066437
X065453
X064469
X064409Y042480
X064134Y042244
X063898Y041968
X063622Y041693
X063484Y043307
X063976Y044291
X064961
X065945
Y042323
X064961
X065453Y041339
X066437
X067421
X065945Y040354
X064961
X065453Y039370
X065945Y036417
X066929
X067913
X068898
X069882
X070866
X071850
X072343Y037402
X071358
X070374
X069390
X068406
X067421
Y035433
X068406
X069390
X070374
X071358
X072343
X071850Y034449
X070866
X069882
X069094Y034449
X069390Y033465
X070374
X071358
X072343
X071850Y032480
X070866
X069882
X068898
X067913
X066929
X065945
Y034449
X065197Y035118
X065394Y035354
X065591Y035630
X064394Y035842
X064685Y034843
X062992Y034449
X062500Y033465
X062992Y032480
X062500Y031496
X064137Y031532
X067421Y031496
X068406
X069390
X070374
X071358
X072343
X068406Y033465
X067421
X069094Y038386
X069882Y038386
X070866
X071850
X062992Y040354
Y044291
Y048228
X063976
X064961
X065945
X066929
X067913
X068898
X069882
X070866
X071850
X072343Y047244
X071358
X070374
X069390
X068406
X067421
X066437
X062008Y048228
X061024
X060039
X059055
X058071
X057087
X056102
X055118
X054134
X053150
X052165
X051181
X050197
X049213
X048228
X047244
X046260
X045276
X044291
X043307
X042323
X041339
X040354
X039370
X038386
X037402
X036417
X035433
X034449
X033465
X032480
X032972Y047244
X033957
X034941
X035925
X036909
X037894
X038878
X039862
X031988
X027067
X026083
X025098
X024114
X023130
X022146
X021161
X020177
X019193
X018209
X018701Y048228
X019685
X020669
X021654
X022638
X023622
X024606
X025591
X026575
X017717
X016732
X015748
X016240Y047244
X015256
X014764Y048228
X013780
X012795
X011811
X010827
X012303Y047244
T02
X066929Y017717
Y018717
Y019717
Y021654
Y022654
Y023654
Y025591
Y026591
Y027591
Y029528
Y030528
Y031528
Y033465
Y034465
Y035465
Y037402
Y038402
Y039402
T03
X016248Y023661
X017217Y023622
X018217
Y027559
X017217
X016248
X015248
X014280
X013280
X012311
X011311
Y023622
X012311
X013280
X014280
X015248Y023661
Y031496
X014280
X013280
X012311
X011311
Y035433
X012311
X013280
X014280
X015248
X016248
X017217
X018217
Y031496
X017217
X016248
T04
X012598Y012598
Y013386
X013386
X014173
Y012598
X013386
X014961
Y013386
X015748
Y012598
X016535
Y013386
X017323
Y012598
X014961Y046063
X014173
X013386
X012598
Y046850
X013386
X014173
X014961
X015748
Y046063
X016535
Y046850
X017323
Y046063
T05
X035902Y013972
X038902
X043776
X046776
X051650
X054650
X059524
X062524
Y015972
Y017972
Y019972
Y020972
Y022972
Y024972
Y026972
X059524
Y024972
Y022972
Y020972
Y019972
Y017972
Y015972
X054650
Y017972
Y019972
Y020972
Y022972
Y024972
Y026972
X051650
Y024972
Y022972
Y020972
Y019972
Y017972
Y015972
X046776
Y017972
Y019972
Y020972
Y022972
Y024972
Y026972
X043776
Y024972
Y022972
Y020972
Y019972
Y017972
Y015972
X038902
Y017972
Y019972
Y020972
Y022972
Y024972
Y026972
X035902
Y024972
Y022972
Y020972
Y019972
Y017972
Y015972
Y032083
Y034083
Y036083
Y038083
Y039083
Y041083
Y043083
Y045083
X038902
Y043083
Y041083
Y039083
Y038083
Y036083
Y034083
Y032083
X043776
Y034083
Y036083
Y038083
Y039083
Y041083
Y043083
Y045083
X046776
Y043083
Y041083
Y039083
Y038083
Y036083
Y034083
Y032083
X051650
Y034083
Y036083
Y038083
Y039083
Y041083
Y043083
Y045083
X054650
Y043083
Y041083
Y039083
Y038083
Y036083
Y034083
Y032083
X059524
Y034083
Y036083
Y038083
Y039083
Y041083
Y043083
Y045083
X062524
Y043083
Y041083
Y039083
Y038083
Y036083
Y034083
Y032083
M30
